<svg xmlns="http://www.w3.org/2000/svg" viewBox="0 0 720.4 64.11">
  <defs>
    <style>.cls-1{fill:#fff;}</style>
  </defs>
  <title>Asset 1</title>
  <g id="Layer_2" data-name="Layer 2">
    <g id="Layer_1-2" data-name="Layer 1">
      <path class="cls-1" d="M39.8,1.62,70,62.87H58.55L49.91,45.75H20.21l-9,17.12H0L30,1.62Zm4.86,33.79L35,15.43l-9.72,20Z"/>
      <path class="cls-1" d="M93.11,1.62l35.25,43.66V1.62h10.18V62.87H128.28L93.18,19.21V62.87H82.69V1.62Z"/>
      <path class="cls-1" d="M207.74,18.67C197.17,11,185.52,9.57,177,12.81c-6.56,2.47-11.57,7.4-13.12,14.35-1.23,5.7-.38,13.42,5.17,19.05,7.25,7.41,18.13,8.56,25.54,6.71s10-3.62,11.8-7.71c.85-2.39.62-7.72.62-7.72H185.44V27.16h32V41.35c0,10.34.31,11.19-6,15.51A42.35,42.35,0,0,1,173,61.41,30.86,30.86,0,0,1,153.2,38.88c-1.93-8-.93-19.13,6.79-27.54C169,1.55,182.51-.61,192.62.7c7,.92,14.73,4.08,22.68,9.64Z"/>
      <path class="cls-1" d="M245.92,1.62V52.77h41.27v10.1H235.66V1.62Z"/>
      <path class="cls-1" d="M352.91,1.62V12.5H312.72V25.69h23.53V36.34H312.72v16h41.74V62.87H302.08V1.62Z"/>
      <path class="cls-1" d="M403.9,1.62c6.87,0,18.13-.31,23.45,9.41,2.55,4.71,3.55,12.58-.46,18.9-5.17,8.18-16.12,8.18-23.84,8.18h-20V62.87H372.58V1.62Zm0,26.23c2.7,0,11.19.46,14-3.7,1.47-2.16,1.08-5.71,0-7.64-2.85-4.94-12-4.32-14.42-4.32H383.23V27.85Z"/>
      <path class="cls-1" d="M503.49,12.27c8.1,9.25,8.87,19.36,6.4,28.08-3.16,11-9.56,18-21.13,21.75-10.8,3.32-25.31,3.24-36.41-5.86v.15A31.63,31.63,0,0,1,441,28.7c1-10,5.4-18.36,16.81-24.07l.47-.23A41.65,41.65,0,0,1,469.55.85C479-.69,494.47,1.62,503.49,12.27ZM459.37,48.45c7.4,5.71,20.21,5.78,27.46,3a20.34,20.34,0,0,0,13.11-15.82,20.83,20.83,0,0,0-6.55-18.59c-6.72-5.94-19.75-6.79-26.62-4.71-8.64,2.71-14.19,9.11-15.12,17.36A20.78,20.78,0,0,0,459.37,48.45Z"/>
      <path class="cls-1" d="M535.89,1.62V62.87H526V1.62Z"/>
      <path class="cls-1" d="M605.47,18.52c-11.19-8-25.07-9-33.33-6.56-2.24.77-4.86,2.24-5.71,4.78a4.24,4.24,0,0,0,.54,4c2.32,3.63,10.73,3.86,13.58,4.17l9.26.92c3.47.31,20.36,2.32,25.07,10.8,2,3.94,2.47,10.42.15,14.89-4.7,9-15.5,11.27-22.06,12-14.12,1.77-25.46-.39-41.42-12.58l7.17-8.17C573,54,586.65,54.93,597.21,52.15c3-.77,6.56-2,8-5.48a5.13,5.13,0,0,0-.24-4.86c-2.31-3.93-13-4.78-14.19-4.93l-12-1.32c-6.24-.69-17.58-2.16-22.06-10.72-1.93-3.86-1.54-10.1.54-14,4.24-7.63,11.88-9.41,18.28-10.1,13.12-1.16,25.15.61,37.73,10Z"/>
      <path class="cls-1" d="M682.3,1.62V12.5H642.11V25.69h23.53V36.34H642.11v16h41.73V62.87H631.46V1.62Z"/>
      <path class="cls-1" d="M708.28,0a12.51,12.51,0,0,1,6,1.56,11.25,11.25,0,0,1,4.53,4.49,12.14,12.14,0,0,1,0,12.12,11.15,11.15,0,0,1-4.49,4.49,12.1,12.1,0,0,1-12.06,0,11.33,11.33,0,0,1-4.51-4.49,12.18,12.18,0,0,1,0-12.12,11.3,11.3,0,0,1,4.55-4.49A12.46,12.46,0,0,1,708.28,0Zm0,2a10.28,10.28,0,0,0-5,1.31,9.48,9.48,0,0,0-3.8,3.76,10.27,10.27,0,0,0-1.36,5.08,10.38,10.38,0,0,0,1.33,5,9.64,9.64,0,0,0,3.77,3.75,10.08,10.08,0,0,0,10.08,0,9.42,9.42,0,0,0,3.76-3.75,10.3,10.3,0,0,0,1.35-5,10.39,10.39,0,0,0-1.37-5.08,9.42,9.42,0,0,0-3.8-3.76A10.29,10.29,0,0,0,708.28,2Zm-5.35,16.89V5.78h4.5a11,11,0,0,1,3.33.36,3.29,3.29,0,0,1,1.64,1.25A3.34,3.34,0,0,1,713,9.3a3.52,3.52,0,0,1-1,2.48A4.05,4.05,0,0,1,709.32,13a3.36,3.36,0,0,1,1.1.7,14.56,14.56,0,0,1,1.91,2.61l1.59,2.6h-2.55l-1.17-2.09A11.22,11.22,0,0,0,708,13.72a2.52,2.52,0,0,0-1.67-.43h-1.22v5.59Zm2.19-7.39h2.55a4.18,4.18,0,0,0,2.5-.54,1.89,1.89,0,0,0,.35-2.47,1.93,1.93,0,0,0-.9-.68,6.55,6.55,0,0,0-2.11-.23h-2.39Z"/>
    </g>
  </g>
</svg>