<svg id="Livello_1" data-name="Livello 1" xmlns="http://www.w3.org/2000/svg" viewBox="0 0 186 42"><defs><style>.cls-1{fill:#221e1f;}</style></defs><title>cappellini</title><path id="cappellini" class="cls-1" d="M125,.09v19.8l-.27-1.2-.28-1.21L124,16.37l-.46-1-.47-.93-.55-.92-.65-.84-.74-.74-.74-.74-.83-.55-.93-.65-1-.46-1.11-.37-1.11-.28-1.3-.18-1.38-.1h-1.39l-1.3.19-1.2.18-1.11.37-1.11.37-1,.46-.92.56-.83.65L103,12l-.74.74-.64.83-.65.83-.46.93-.56,1-.37,1-.28,1.11L99,17l-.55-1.48-.56-1.39L97.11,13l-.83-1.11-.92-1-1.11-.74L93,9.34l-.74-.18-.74-.28-.83-.18-.92-.1H88l-.83.1-.84.18-.64.19L85,9.34l-.65.37-.55.37-.93.84-.83.92L82,12l-.19.09V9.25H77.88l-3.8.09v8.79l-.37-1.57-.55-1.39-.56-1.29-.74-1.21-.92-1.11-1-.92L68.81,9.9l-1.29-.65-.74-.18L66,8.79l-.83-.09-.84-.1H62.71L62,8.7l-.83.18-.65.19-.65.27-.55.37-.56.37-1,.84-.74.92-.09.19-.09.09H56.7V9.25H49v8.88L48.93,33l-.19-.64-.18-.74-.19-1.58V16.28l-.18-1.2L48,14,47.63,13l-.46-.92-.65-.74-.64-.65L45,10.17l-.83-.46-1.29-.46L41.44,9,39.86,8.7,38.2,8.6H36.53l-1.66.1-1.57.18-1.48.28-1.3.46-1.2.55-1.11.75-.93.83-.37.46-.37.56-.37.55L25.9,14l-.19.65-.18.64-.1.74-.09.84h7.49l.28-.93.37-.74.28-.28.28-.27.37-.28.37-.19.92-.27,1-.1,1,.1,1,.18.84.37.37.28.27.28.19.37.18.37.1.46v.55l-.1.47-.18.46-.28.28-.37.27-.37.19-.46.09-.93.19-2,.37-2,.27-1.57.19L31,19.89l-1.38.37-1.3.46-1.11.65-.55.37-.47.37-.37.46-.37.46-.36.56-.28.55h-7.4v.1l-.28,1-.28.84-.46.83-.65.55-.83.47-.92.37-.56.09H12.3l-.55-.09-.47-.19-.46-.18-.74-.47-.65-.64L9,26.09l-.46-.93-.28-.92-.18-1V20.54l.18-1.39L8.6,18l.19-.65.27-.46.37-.47.37-.46.37-.37.47-.28.55-.18.65-.19.65-.18h1.29l.46.18.56.1.37.27.74.47.37.27.28.37.18.37.19.47.18.55.09.56H25L24.79,17l-.28-1.11-.37-1.11-.46-.92L23,13l-.65-.83-.74-.65-.74-.64L20,10.36l-.93-.55-1-.37-1.11-.37-1.21-.28-1.2-.19-1.39-.09-1.38.09-1.3.1L9.25,9l-1.11.28-1,.46-.92.46-.93.56-.83.65-.74.74-.65.74-.64.74-.56.92-.46.93-.47,1L.56,17.58l-.28,1.2L.09,20,0,21.37l.09,1.29L.19,24l.18,1.2.28,1.11.46,1.11.46.93.56.92.55.83.74.74.74.74.74.65.93.56.92.46.93.46L8.79,34l1.2.28,1.29.18,1.3.1,1.29-.1,1.3-.09,1.2-.28,1.11-.27,1-.37.83-.47.83-.46.74-.46.74-.65.65-.55.55-.74.56-.74.46-.74.19-.47.28-.46.18,1.39.18.65.28.55.19.56.37.55.37.46.37.47.92.74,1,.55,1.2.46,1.39.28,1.48.19,1.57-.1,1.48-.18,1.3-.28,1.11-.46,1-.56.93-.55.83-.74.09-.09h.1l.18,1.11.28,1.11h7.77V42h8V36.63l.1-5.46.09.1.09.18.83.83.93.84,1.11.64,1.2.47.83.18.74.09.84.1.83-.1h.83l.83-.18.74-.19.65-.18,1.3-.56L70,32.65l.92-.83.83-1,.74-1.11.65-1.2.46-1.29.46-1.39L74,42H82V36.63l.09-5.46.19.1.09.18.83.93.93.74.55.37.55.27.65.28.65.19.83.18.84.09.83.1.83-.1.92-.09.74-.09.84-.19.64-.27,1.3-.65,1.11-.74.92-.93.84-1.11.74-1.2.55-1.29L99,26.55l.37-1.48.28,1,.37,1,.46.93.47.83.46.83.65.74.64.74.74.65.74.56.84.46.92.46.93.37,1.11.37,1,.19,1.21.18,1.2.09,1.29.1,1.21-.1,1.2-.09,1.11-.28,1.11-.27,1-.37.93-.37.83-.47.83-.55.74-.65.65-.65.65-.74.55-.83.47-.83.37-.93.27-1h-7.49l-.37.74-.55.55-.65.56-.74.37-.92.27-.93.19h-1.11l-1-.19-.83-.37-.74-.37-.65-.55L108,27l-.37-.65-.37-.92-.19-.93-.09-1,17.94.09-.09,10.27h8v-17L133,.09l-8-.09ZM40.6,24.24l-.09.83-.18.83-.19.83-.28.65-.37.65-.46.55-.55.37-.65.28-.83.28-.84.09h-.83l-.83-.09-.74-.28-.65-.46-.28-.28-.18-.28-.28-.74v-1.2l.09-.37.37-.65.47-.55.55-.37.65-.28.74-.28.74-.18,1.57-.37,1.57-.28.84-.28.64-.27Zm25.81-3v1.38L66.13,24l-.28,1.11-.46,1-.28.46-.37.46-.37.37-.37.37-.46.28-.55.18-.56.1-.55.09h-.74l-.65-.09-.56-.1L59.47,28,59,27.75l-.46-.37L58.18,27l-.28-.46-.28-.46-.28-.47L57,24.42l-.18-1.29V20.72l.09-1,.19-.92.18-.83.37-.74.46-.65.47-.65.64-.46.47-.28.55-.18.56-.19.64-.09h.65l.65.09.55.19.56.27.46.28.37.37.37.37.28.46.46.93.37,1.11.28,1.2Zm25.15.46-.09,1-.18.92-.19.93-.28.83-.37.74-.64.83-.37.37-.37.37-.46.28-.56.18-.55.1-.65.09H86.2l-.65-.09L85,28.12l-.56-.18L84,27.66l-.37-.37-.37-.37L83,26.55,82.69,26l-.19-.46-.37-1.11L82,23.13l-.1-1.39V20.35L82,19.06,82.41,18l.46-1,.46-.65.56-.55.65-.47.73-.27.65-.19.65-.09.93.09.92.19.74.37.65.46.46.65.46.74L91,18l.28.83.18.92.09,1ZM107,19.06l.28-1,.28-.83.46-.84.46-.74.65-.64.74-.47.92-.27,1-.19.55-.09.56.09.55.09.47.19.46.28.46.18.65.65.55.74.47.83.27.93.19,1.11ZM134.09,0H142l-.09,34H134l.09-34Zm9,0H151V6h-8V0ZM186,0V6l-8-.09V0Zm-9,18.26h0v.12l-.08,1.89V33h0v1h-8.18V18.9l-.06-.86,0-.42-.1-.55,0-.15-.14-.4,0-.11-.23-.44-.28-.37-.38-.37-.47-.27-.56-.18-.56-.19h-2l-.66.19-.47.18-.25.15-.22.12-.47.37-.24.32,0,.05-.13.12-.24.24-.1.23-.09.23-.23.54-.24.56-.1.55-.09.64-.09,1.28.09,1.47V22l-.09,12H152V33h0l.09-24.36H160l.06,2.09,0,1.3.1-.09.09-.09.07-.13,0-.06.57-.73.49-.48.17-.16.18-.13.57-.42.7-.43.05,0h0l.94-.46.95-.38.18-.07.11,0,1.11-.25L167.55,8h1.18l1,.09.94.18.85.19,1.22.46,1,.64.69.53.25.2.15.2.51.72.66,1,.38,1.19.28,1.38.19,1.37ZM143.18,9H151V21.59h0L150.91,34H143l.09-24.91.09-.09Zm34.91,0H186V24.37L186,34h-8l.09-25Z"/></svg>